<svg id="visual" viewBox="0 0 900 20" width="900" height="20" xmlns="http://www.w3.org/2000/svg" xmlns:xlink="http://www.w3.org/1999/xlink" version="1.1"><path d="M0 3L8.3 3.7C16.7 4.3 33.3 5.7 50 6C66.7 6.3 83.3 5.7 100 5.7C116.7 5.7 133.3 6.3 150 6.3C166.7 6.3 183.3 5.7 200 5C216.7 4.3 233.3 3.7 250 3.3C266.7 3 283.3 3 300 3.2C316.7 3.3 333.3 3.7 350 4C366.7 4.3 383.3 4.7 400 5C416.7 5.3 433.3 5.7 450 5.7C466.7 5.7 483.3 5.3 500 5C516.7 4.7 533.3 4.3 550 4.5C566.7 4.7 583.3 5.3 600 5.3C616.7 5.3 633.3 4.7 650 4.7C666.7 4.7 683.3 5.3 700 5.7C716.7 6 733.3 6 750 5.5C766.7 5 783.3 4 800 3.7C816.7 3.3 833.3 3.7 850 3.8C866.7 4 883.3 4 891.7 4L900 4L900 0L891.7 0C883.3 0 866.7 0 850 0C833.3 0 816.7 0 800 0C783.3 0 766.7 0 750 0C733.3 0 716.7 0 700 0C683.3 0 666.7 0 650 0C633.3 0 616.7 0 600 0C583.3 0 566.7 0 550 0C533.3 0 516.7 0 500 0C483.3 0 466.7 0 450 0C433.3 0 416.7 0 400 0C383.3 0 366.7 0 350 0C333.3 0 316.7 0 300 0C283.3 0 266.7 0 250 0C233.3 0 216.7 0 200 0C183.3 0 166.7 0 150 0C133.3 0 116.7 0 100 0C83.3 0 66.7 0 50 0C33.3 0 16.7 0 8.3 0L0 0Z" fill="#155dfb" stroke-linecap="round" stroke-linejoin="miter"></path></svg>