<svg id="visual" viewBox="0 0 900 30" width="900" height="30" xmlns="http://www.w3.org/2000/svg" xmlns:xlink="http://www.w3.org/1999/xlink" version="1.1"><path d="M0 10L5.3 10.5C10.7 11 21.3 12 32 11.8C42.7 11.7 53.3 10.3 64 10C74.7 9.7 85.3 10.3 96.2 11.5C107 12.7 118 14.3 128.8 15.2C139.7 16 150.3 16 161 15.2C171.7 14.3 182.3 12.7 193 12.5C203.7 12.3 214.3 13.7 225 14C235.7 14.3 246.3 13.7 257 13C267.7 12.3 278.3 11.7 289 12.2C299.7 12.7 310.3 14.3 321.2 15.5C332 16.7 343 17.3 353.8 16.5C364.7 15.7 375.3 13.3 386 11.7C396.7 10 407.3 9 418 8.5C428.7 8 439.3 8 450 8C460.7 8 471.3 8 482 8.3C492.7 8.7 503.3 9.3 514 10.3C524.7 11.3 535.3 12.7 546.2 12.5C557 12.3 568 10.7 578.8 10.8C589.7 11 600.3 13 611 14.5C621.7 16 632.3 17 643 16.5C653.7 16 664.3 14 675 14.2C685.7 14.3 696.3 16.7 707 17.3C717.7 18 728.3 17 739 15.5C749.7 14 760.3 12 771.2 11.3C782 10.7 793 11.3 803.8 11.8C814.7 12.3 825.3 12.7 836 12.2C846.7 11.7 857.3 10.3 868 9.8C878.7 9.3 889.3 9.7 894.7 9.8L900 10L900 0L894.7 0C889.3 0 878.7 0 868 0C857.3 0 846.7 0 836 0C825.3 0 814.7 0 803.8 0C793 0 782 0 771.2 0C760.3 0 749.7 0 739 0C728.3 0 717.7 0 707 0C696.3 0 685.7 0 675 0C664.3 0 653.7 0 643 0C632.3 0 621.7 0 611 0C600.3 0 589.7 0 578.8 0C568 0 557 0 546.2 0C535.3 0 524.7 0 514 0C503.3 0 492.7 0 482 0C471.3 0 460.7 0 450 0C439.3 0 428.7 0 418 0C407.3 0 396.7 0 386 0C375.3 0 364.7 0 353.8 0C343 0 332 0 321.2 0C310.3 0 299.7 0 289 0C278.3 0 267.7 0 257 0C246.3 0 235.7 0 225 0C214.3 0 203.7 0 193 0C182.3 0 171.7 0 161 0C150.3 0 139.7 0 128.8 0C118 0 107 0 96.2 0C85.3 0 74.7 0 64 0C53.3 0 42.7 0 32 0C21.3 0 10.7 0 5.3 0L0 0Z" fill="#101828" stroke-linecap="round" stroke-linejoin="miter"></path></svg>